<svg width="765" height="410" viewBox="0 0 765 410" fill="none" xmlns="http://www.w3.org/2000/svg">
<path d="M84.1212 401.371C86.2512 401.371 87.9613 403.081 87.9613 405.211C87.9613 407.341 86.2512 409.051 84.1212 409.051C82.0212 409.051 80.2812 407.341 80.2812 405.211C80.2812 403.081 82.0212 401.371 84.1212 401.371Z" fill="#FF0000"/>
<path d="M334.77 5.44084e-05C336.87 5.44084e-05 338.61 1.74007 338.61 3.84007C338.61 5.97007 336.87 7.68001 334.77 7.68001C332.64 7.68001 330.93 5.97007 330.93 3.84007C330.93 1.74007 332.64 5.44084e-05 334.77 5.44084e-05Z" fill="#FF0000"/>
<path d="M720.631 401.371C722.761 401.371 724.471 403.081 724.471 405.211C724.471 407.341 722.761 409.051 720.631 409.051C718.531 409.051 716.791 407.341 716.791 405.211C716.791 403.081 718.531 401.371 720.631 401.371Z" fill="#FF0000"/>
<path fill-rule="evenodd" clip-rule="evenodd" d="M764.1 3.27122V405.811L571.65 405.811L551.73 385.891H228.39L208.32 405.961H208.05L0 405.811L0 166.561L24.6 141.961L24.6 3.48121H397.5L418.2 24.1812L612.09 24.1812L633 3.27122H764.1ZM762.9 404.611V4.47122H633.54L612.6 25.3812L417.72 25.3812L397.02 4.68121H25.83L25.83 142.441L1.23 167.071L1.23 404.611L207.84 404.761L227.91 384.691H552.24L572.16 404.611H762.9Z" fill="#FF0000"/>
<g opacity="0.5">
<path fill-rule="evenodd" clip-rule="evenodd" d="M752.131 13.021V395.281L577.981 395.281L558.691 375.991L221.61 375.991L201.601 395.971H9.09046V395.671L8.73047 172.771L8.82047 172.681L33.9005 147.601L33.9005 13.531H385.381L407.971 36.091L616.921 36.091L640.021 13.021H752.131ZM751.531 394.681V13.621H640.291L617.191 36.691L407.731 36.691L385.141 14.131H34.5005L34.5005 147.871L9.33047 173.011L9.69046 395.371H201.36L221.371 375.391H558.931L578.251 394.681H751.531Z" fill="#FF0000"/>
</g>
<path d="M236.971 407.94H541.681L530.461 396.75L247.081 396.75L236.971 407.94Z" fill="#FF0000"/>
<path d="M416.791 3.2709L428.161 14.6409L433.711 14.6409L422.341 3.2709H416.791Z" fill="#FF0000"/>
<path d="M430.26 3.2709L441.66 14.6409L447.21 14.6409L435.81 3.2709H430.26Z" fill="#FF0000"/>
<path d="M443.76 3.2709L455.13 14.6409L460.68 14.6409L449.31 3.2709H443.76Z" fill="#FF0000"/>
<path d="M457.23 3.2709L468.6 14.6409L474.15 14.6409L462.78 3.2709H457.23Z" fill="#FF0000"/>
<path d="M470.73 3.2709L482.1 14.6409L487.65 14.6409L476.25 3.2709H470.73Z" fill="#FF0000"/>
<path d="M484.201 3.2709L495.571 14.6409L501.121 14.6409L489.751 3.2709H484.201Z" fill="#FF0000"/>
<path d="M497.67 3.2709L509.07 14.6409L514.62 14.6409L503.22 3.2709H497.67Z" fill="#FF0000"/>
<path d="M511.17 3.2709L522.54 14.6409L528.09 14.6409L516.72 3.2709H511.17Z" fill="#FF0000"/>
<path d="M524.641 3.2709L536.011 14.6409L541.561 14.6409L530.191 3.2709H524.641Z" fill="#FF0000"/>
<path d="M538.109 3.2709L549.509 14.6409L555.059 14.6409L543.659 3.2709H538.109Z" fill="#FF0000"/>
<path d="M551.609 3.2709L562.979 14.6409L568.529 14.6409L557.159 3.2709H551.609Z" fill="#FF0000"/>
<path d="M565.08 3.2709L576.45 14.6409L582 14.6409L570.63 3.2709H565.08Z" fill="#FF0000"/>
<path d="M0 147.961L13.65 134.311L13.65 3.84128H0L0 147.961Z" fill="#FF0000"/>
</svg>
